# xmcd
#
# Track frame offsets:
#	150
#	12482
#	24120
#	36330
#	49530
#	63302
#	77840
#	90032
#	101415
#	113007
#	125147
#	138282
#	152115
#	165890
#	178095
#	190350
#	203427
#	213545
#	226100
#	239045
#	252555
#	265102
#
# Disc length: 3719 seconds
# Revision: 2
# Processed by: cddbd v1.5.2PL0 Copyright (c) Steve Scherf et al.
# Submitted via: dBpowerAMP V12.0
#
DISCID=1e0e8516
DTITLE=Sonny James - The Complete Columbia and Monument Hits
DYEAR=2002
DGENRE=Country
TTITLE0=When The Snow Is On The Rose
TTITLE1=White Silver Sands
TTITLE2=I Love You More And More Everyday
TTITLE3=If She Just Help Me Over You (Reynolds-Williams) (1973)
TTITLE4=Is It Wrong
TTITLE5=A Mi Esposa Con Amor (To My Wife With Love)
TTITLE6=A Little Bit South Of Saskatoon
TTITLE7=Little Band Of Gold
TTITLE8=What In The World's Come Over You
TTITLE9=Eres Tu (Touch The Wind)
TTITLE10=The Prisoner's Song
TTITLE11=Back In The Saddle Again
TTITLE12=When Something Is Wrong With My Baby
TTITLE13=Come On In
TTITLE14=You're Free To Go
TTITLE15=In The Jailhouse Now
TTITLE16=Abilene
TTITLE17=This Is The Love
TTITLE18=Caribbean
TTITLE19=Building Memories
TTITLE20=Hold What You've Got
TTITLE21=Lorelei
EXTD=
EXTT0=
EXTT1=
EXTT2=
EXTT3=
EXTT4=
EXTT5=
EXTT6=
EXTT7=
EXTT8=
EXTT9=
EXTT10=
EXTT11=
EXTT12=
EXTT13=
EXTT14=
EXTT15=
EXTT16=
EXTT17=
EXTT18=
EXTT19=
EXTT20=
EXTT21=
PLAYORDER=
